<?xml version="1.0" encoding="utf-8"?>
<!-- Generator: Adobe Illustrator 23.0.5, SVG Export Plug-In . SVG Version: 6.00 Build 0)  -->
<svg version="1.1" id="Layer_1" xmlns="http://www.w3.org/2000/svg" xmlns:xlink="http://www.w3.org/1999/xlink" x="0px" y="0px"
	 viewBox="0 0 24 24" style="enable-background:new 0 0 24 24;" xml:space="preserve">
<path d="M21,21V5H3v8H1V5c0-0.5,0.2-1,0.6-1.4S2.5,3,3,3h18c0.6,0,1,0.2,1.4,0.6S23,4.4,23,5v14c0,0.6-0.2,1-0.6,1.4S21.6,21,21,21z
	 M9,14c-1.1,0-2-0.4-2.8-1.2S5,11.1,5,10s0.4-2,1.2-2.8S7.9,6,9,6s2,0.4,2.8,1.2C12.6,8,13,8.9,13,10s-0.4,2-1.2,2.8
	C11,13.6,10.1,14,9,14z M9,12c0.6,0,1-0.2,1.4-0.6S11,10.5,11,10s-0.2-1-0.6-1.4S9.6,8,9,8S8,8.2,7.6,8.6S7,9.4,7,10s0.2,1,0.6,1.4
	S8.4,12,9,12z M1,22v-2.8c0-0.6,0.1-1.1,0.4-1.6s0.7-0.8,1.2-1.1c1-0.5,2.1-0.9,3.1-1.2S7.9,15,9,15s2.2,0.1,3.3,0.4
	s2.1,0.6,3.2,1.2c0.5,0.3,0.9,0.6,1.2,1.1c0.3,0.5,0.4,1,0.4,1.6V22H1z M3,20h12v-0.8c0-0.2,0-0.4-0.1-0.5s-0.2-0.3-0.4-0.4
	c-0.9-0.4-1.8-0.8-2.7-1C10.9,17.1,9.9,17,9,17s-1.9,0.1-2.8,0.3c-0.9,0.2-1.8,0.6-2.7,1c-0.1,0.1-0.3,0.2-0.4,0.4S3,19,3,19.2V20z"
	/>
</svg>
